<svg width="47" height="47" viewBox="0 0 47 47" fill="none" xmlns="http://www.w3.org/2000/svg">
<path fill-rule="evenodd" clip-rule="evenodd" d="M23.4 46.8C36.3235 46.8 46.8 36.3235 46.8 23.4C46.8 10.4765 36.3235 0 23.4 0C10.4765 0 0 10.4765 0 23.4C0 36.3235 10.4765 46.8 23.4 46.8ZM16.3799 17.9012C15.9276 17.9012 15.5609 18.2679 15.5609 18.7202C15.5609 19.1725 15.9276 19.5392 16.3799 19.5392H28.0799C28.5322 19.5392 28.8989 19.1725 28.8989 18.7202C28.8989 18.2679 28.5322 17.9012 28.0799 17.9012H16.3799ZM15.5609 28.0797C15.5609 27.6274 15.9276 27.2607 16.3799 27.2607H25.7399C26.1922 27.2607 26.5589 27.6274 26.5589 28.0797C26.5589 28.5321 26.1922 28.8987 25.7399 28.8987H16.3799C15.9276 28.8987 15.5609 28.5321 15.5609 28.0797ZM16.3799 22.5812C15.9276 22.5812 15.5609 22.9479 15.5609 23.4002C15.5609 23.8525 15.9276 24.2192 16.3799 24.2192H32.7599C33.2122 24.2192 33.5789 23.8525 33.5789 23.4002C33.5789 22.9479 33.2122 22.5812 32.7599 22.5812H16.3799Z" fill="url(#paint0_linear_71_555)"/>
<defs>
<linearGradient id="paint0_linear_71_555" x1="0.889199" y1="0.571998" x2="15.6225" y2="54.0939" gradientUnits="userSpaceOnUse">
<stop stop-color="#1C1C1C"/>
<stop offset="1" stop-color="#101010"/>
</linearGradient>
</defs>
</svg>
