<svg width="30" height="54" viewBox="0 0 30 54" fill="none" xmlns="http://www.w3.org/2000/svg">
<path fill-rule="evenodd" clip-rule="evenodd" d="M21 27.1652C21 26.7783 21.2171 26.4263 21.5512 26.2311C25.4087 23.9761 28 19.7907 28 15C28 7.8203 22.1797 2 15 2C7.8203 2 2 7.8203 2 15C2 19.7907 4.59134 23.9761 8.4488 26.2311C8.78288 26.4263 9 26.7783 9 27.1652C9 27.9137 8.23271 28.4113 7.58243 28.0406C3.0535 25.459 0 20.5861 0 15C0 6.71573 6.71573 0 15 0C23.2843 0 30 6.71573 30 15C30 20.5861 26.9465 25.459 22.4176 28.0406C21.7673 28.4113 21 27.9137 21 27.1652Z" fill="#FF8521"/>
<path d="M10.7558 36.6832C10.7686 36.5471 10.7942 36.4037 10.7942 36.2603C10.7942 32.7058 10.7942 29.1513 10.8032 25.5968C10.8032 24.2632 11.3979 23.2153 12.5861 22.5007C14.4829 21.362 17.1765 22.2556 17.8928 24.2706C18.0544 24.7336 18.1407 25.2177 18.1486 25.7059C18.1793 27.4316 18.169 29.1574 18.155 30.8832C18.155 31.2068 18.2662 31.344 18.5975 31.3735C19.4514 31.4706 20.2427 31.8519 20.8332 32.4509C20.8985 32.5046 20.9743 32.5454 21.0562 32.5709C21.1381 32.5964 21.2245 32.606 21.3103 32.5992C22.7172 32.4239 23.8683 32.8443 24.7944 33.8604C24.9281 33.9672 25.0973 34.0246 25.2714 34.0222C26.5505 34.0712 27.5737 34.5566 28.3091 35.5665C28.766 36.1603 29.0085 36.8807 28.9998 37.6184C28.9537 40.3639 29.0714 43.1168 28.8859 45.8525C28.657 49.2318 26.8958 51.7358 23.5959 53.1246C21.7081 53.92 19.7141 54.0892 17.6804 53.9617C15.6468 53.8342 13.7769 53.2618 12.1282 52.095C10.8852 51.2229 9.87354 50.083 9.17496 48.7672C8.25023 47.0243 7.38433 45.2495 6.50565 43.487C6.11853 42.7156 5.73482 41.943 5.35453 41.1692C4.36329 39.1787 5.53871 36.769 7.78467 36.2554C8.65151 36.0408 9.57067 36.143 10.3632 36.5422C10.4578 36.59 10.5525 36.6354 10.6484 36.6795C10.6497 36.6954 10.674 36.6868 10.7558 36.6832ZM16.2415 28.9858H16.2326C16.2326 27.8521 16.2467 26.7183 16.2326 25.5845C16.2108 24.2216 14.7975 23.4236 13.5914 24.0978C12.9647 24.4471 12.7242 25.0195 12.7294 25.701C12.7507 29.3339 12.7699 32.9673 12.7869 36.601C12.7869 37.7042 12.7562 38.8073 12.7306 39.903C12.718 40.1184 12.6358 40.3246 12.4953 40.4931C12.3548 40.6616 12.163 40.7839 11.9466 40.8431C11.646 40.9093 11.1229 40.6544 10.9375 40.321C10.7021 39.8981 10.4872 39.463 10.2749 39.0316C9.84516 38.1577 8.83602 37.7593 7.98547 38.1356C7.7679 38.2278 7.5721 38.3613 7.40994 38.5281C7.24777 38.695 7.12261 38.8915 7.04203 39.106C6.96144 39.3205 6.9271 39.5485 6.94109 39.7761C6.95508 40.0037 7.0171 40.2261 7.12342 40.4301C7.81792 41.8298 8.50859 43.2296 9.21461 44.6219C9.83621 45.8476 10.4169 47.1027 11.1331 48.2831C12.1385 49.9586 13.6157 51.1647 15.5649 51.7261C17.7721 52.3772 20.1375 52.3433 22.3233 51.6292C25.1972 50.71 26.8421 48.3836 26.9917 45.6515C27.0748 44.1255 26.9917 42.5873 26.9917 41.0613C26.9917 39.8969 26.9917 38.7325 26.9853 37.5693C26.9776 36.6623 26.0363 35.5592 24.7752 35.9637C24.2034 36.1475 23.7814 35.9269 23.4782 35.3594C23.0063 34.4794 22.0713 34.1754 21.1274 34.597C20.571 34.8422 20.0274 34.6841 19.7294 34.1803C19.2293 33.3321 18.586 33.0588 17.605 33.2782C16.7416 33.4719 16.2569 33.1103 16.2556 32.2645C16.2462 31.1712 16.2415 30.0783 16.2415 28.9858Z" fill="#FF8521"/>
</svg>
